# xmcd
#
# Track frame offsets: 
#        182
#        27857
#        57892
#        94982
#        121107
#        139022
#
# Disc length: 2630 seconds
#
# Revision: 0
# Processed by: cddbd v1.4PL0 Copyright (c) Steve Scherf et al.
# Submitted via: ExactAudioCopy v0.95a3
#
DISCID=480a4406
DTITLE=Bobby Bland and B.B. King - Together again... Live
DYEAR=1976
DGENRE=Blues
TTITLE0=Let The Good Times Roll
TTITLE1=MEDLEY: Stormy Monday Blues_Strange Things Happen
TTITLE2=Feel So Bad
TTITLE3=MEDLEY: Mother-In-Law Blues_Mean Old World
TTITLE4=Everyday (I Have The Blues)
TTITLE5=MEDLEY: The Thrill Is Gone_I Ain't Gonna Be The First To Cry
EXTD=
EXTT0=
EXTT1=
EXTT2=
EXTT3=
EXTT4=
EXTT5=
PLAYORDER=
